# xmcd
#
# Track frame offsets: 
#        150
#        21344
#        37706
#        56465
#        75795
#        95940
#        109814
#        119277
#        133973
#        148057
#        161812
#        173895
#        190054
#        204263
#        224150
#
# Disc length: 3106 seconds
#
# Revision: 0
# Processed by: cddbd v1.5.1PL2 Copyright (c) Steve Scherf et al.
# Submitted via: ExactAudioCopy v0.95a3
#
DISCID=d70c200f
DTITLE=Johnny Cash and Willie Nelson - VH 1  Storytellers
DYEAR=1900
DGENRE=Country
TTITLE0=(Ghost) riders in the sky
TTITLE1=Worried man
TTITLE2=Family bible
TTITLE3=Don't take your guns to town
TTITLE4=Funny how time slips away
TTITLE5=Flesh and blood
TTITLE6=Crazy
TTITLE7=Unchained
TTITLE8=Night life
TTITLE9=Drive on
TTITLE10=Me and Paul
TTITLE11=I still miss someone
TTITLE12=Always on my mind
TTITLE13=Folsom prison blues
TTITLE14=On the road again
EXTD=
EXTT0=
EXTT1=
EXTT2=
EXTT3=
EXTT4=
EXTT5=
EXTT6=
EXTT7=
EXTT8=
EXTT9=
EXTT10=
EXTT11=
EXTT12=
EXTT13=
EXTT14=
PLAYORDER=
